<svg aria-hidden="true" style="position: absolute; width: 0; height: 0; overflow: hidden;" version="1.1" xmlns="http://www.w3.org/2000/svg" xmlns:xlink="http://www.w3.org/1999/xlink">
<defs>
<symbol id="icon-bi_search" viewBox="0 0 32 32">
<path fill="#33aff5" style="fill: var(--color1, #33aff5)" d="M23.484 20.688c1.937-2.643 2.804-5.919 2.429-9.174s-1.966-6.248-4.453-8.38c-2.487-2.132-5.688-3.247-8.962-3.121s-6.379 1.484-8.695 3.801-3.671 5.424-3.795 8.698c-0.124 3.274 0.993 6.474 3.127 8.96s5.128 4.074 8.383 4.447c3.255 0.373 6.531-0.497 9.172-2.435h-0.002c0.060 0.080 0.124 0.156 0.196 0.23l7.7 7.7c0.375 0.375 0.884 0.586 1.414 0.586s1.039-0.21 1.415-0.585c0.375-0.375 0.586-0.884 0.586-1.414s-0.21-1.039-0.585-1.415l-7.7-7.7c-0.072-0.072-0.148-0.137-0.23-0.198zM24 13c0 1.445-0.284 2.875-0.837 4.209s-1.363 2.547-2.385 3.569-2.234 1.832-3.569 2.385c-1.335 0.553-2.765 0.837-4.21 0.837s-2.875-0.284-4.21-0.837c-1.335-0.553-2.547-1.363-3.569-2.385s-1.832-2.234-2.385-3.569c-0.553-1.335-0.837-2.765-0.837-4.21 0-2.917 1.159-5.715 3.222-7.778s4.861-3.222 7.778-3.222c2.917 0 5.715 1.159 7.778 3.222s3.222 4.861 3.222 7.778z"></path>
</symbol>
</defs>
</svg>